<svg version="1" xmlns="http://www.w3.org/2000/svg" width="933.333" height="933.333" viewBox="0 0 700.000000 700.000000"><path d="M167 124c0 .5-.6.7-1.4.4-1.4-.5-15.4.9-20.6 2.1-4.7 1.1-5.5 1.3-5.5 1.5 0 .1-1.8.4-4 .6-2.1.3-4.4.9-5.1 1.5-.7.5-2.4.8-3.8.5-1.5-.3-2.4-.1-2.1.5.4.5-.4.9-1.7.9-1.3 0-3 .6-3.7 1.2-1 1.1-1.1.9-.5-.6.6-1.6.4-1.7-1.7-1.1-1.3.4-3.2 1.4-4.1 2.3-1.2 1-2.2 1.2-3 .5-1.4-1.1-13.2-.2-14.4 1-.4.4.8.5 2.7.1 2.3-.4 3-.3 2 .4-1.5 1.1-11.1 1.3-12.6.2-1.6-1-7.3-1.1-8-.1-.3.6-1.2.8-2 .4-.9-.3-2.2 0-3 .7-.8.7-2.7 1-4.3.7-1.5-.3-3.5 0-4.5.8-1 .7-2.7 1.1-3.8.8-1-.3-2.6 0-3.4.7-1.2 1-1.8 1-2.9.1-1.1-1-1.8-.7-3.3 1.5-1 1.4-2.7 3.7-3.9 4.9-1.1 1.2-2.1 3.1-2.1 4.1 0 2 1.9 4.4 3.6 4.4.5 0 1.4.8 2 1.7 1.3 2.5-.4 5.3-3.3 5.3-1.3 0-2.9.7-3.6 1.5-.7.8-2.8 1.5-4.6 1.5H37v5.6c0 3.9.3 5.3 1.2 4.8.7-.4.8-.3.4.5-.4.6-.3 1.8.3 2.5s1.3 4.9 1.5 9.2c.3 4.4.7 9 1.1 10.4.4 1.4.6 6.9.5 12.3-.1 9.5-1 13.2-3.7 15-.8.5-1.3 2.9-1.3 5.7 0 2.8-.4 5-.8 5-.5 0-.9.6-.9 1.2 0 .7-.4 6-.8 11.6-.4 5.7-.8 15.2-1 21-.1 5.9-.3 10.7-.4 10.7-.2 0-.4 3.7-.6 8.2-.2 6.7-.7 9-2.9 12.7-1.4 2.4-2.6 5.5-2.6 6.8.1 2.5-1 38-1.1 38.8-.1.3-.2 11.3-.3 24.6-.1 13.2-.6 24.5-.9 25.1-.4.7-.3 1.4.3 1.8.7.4.7 1.2 0 2.4-.5 1-1.1 9.9-1.4 19.8-.3 9.9-.8 18.7-1.1 19.6-.4.8-.2 1.8.4 2.2.6.3 1.1 1.4 1.1 2.3 0 1.5-.2 1.5-1 .2-.7-1.1-1-.6-1.1 2 0 1.9-.2 4.6-.4 6-.6 4.5-1.6 21.2-2 35.5-.2 7.7-.7 22.3-1.2 32.5-.9 21.3-1 39.6-.3 40.4.4.4 4.1 1.2 7.3 1.5 1.1.1.9 4.1-.2 4.1-1.9 0 1.5 7.2 4.1 8.7 2.3 1.5 2.7 1.5 5.1-.3 1.5-1 3-2.8 3.3-3.9 1.1-3.1 3.6-4.5 7.7-4.3 2.1.1 4.1-.3 4.5-.9.4-.5 6.1-1.3 12.7-1.6 11.5-.7 13.7-.9 21.5-2.4 1.9-.3 5.7-.7 8.4-.9 2.7-.1 5.1-.7 5.5-1.2.6-.9 1.9-1.3 10.6-2.7 1.7-.3 4.4 0 6.1.5 2.5.9 4.2.7 8.1-.9 2.8-1.1 6.3-2.1 7.9-2.4 1.6-.2 3.6-.6 4.4-.9 2.5-1 10.3-2.8 14-3.3 9.1-1.2 12-1.8 12-2.5 0-.9 4.1-.6 5.8.4.6.3 2.2.2 3.6-.4 4.7-1.8 2.4-7-3.1-7-1.2 0-2.2-1.1-2.8-3.2-.8-2.5-1.8-3.4-5-4.3-2.3-.6-5.2-1-6.5-.9-5.6.7-10.8 1.4-15.5 2.2-2.7.4-7.3.7-10.2.7-3.6-.2-5 .1-4.6.9.4.6 0 .5-.9-.2-1.2-.9-4-1.2-9.2-1-4.2.2-7.6 0-7.6-.4 0-.5-.9-.1-2 .9-1.5 1.4-3.8 1.9-9.9 2.1-4.4.2-9 .5-10.3.8-11.8 2.5-22.5 4.1-24.9 3.6-1.4-.3-1.6-1.6-1.3-9.5.2-5.1.5-11.2.8-13.7.2-2.5.7-7.9 1-12 .4-4.1.9-8.6 1.3-10 .3-1.4.7-5 .8-8.2.2-3.1.7-7.3 1.1-9.5.4-2.1.8-5.8 1-8.3.1-2.5.5-6.3.8-8.5.4-2.2.8-7.8 1.1-12.5.3-4.7.7-12.6 1-17.5.6-10 1.1-15.6 2.1-19.7.3-1.6.7-8 .9-14.3.2-6.3.7-12 1-12.6.4-.5.7-3.1.7-5.6 0-5.1.6-5.9 7.1-9.4l3.7-2 4.8 2.7c11.7 6.7 11.2 6.3 9.9 9.1-1 2.2-.8 2.8.9 4.2 1.1.9 3 3.6 4.3 6.1 2.2 4.4 3.8 6.8 9.2 14 1.5 1.9 3 4.5 3.3 5.6.4 1.2 1.5 2.9 2.6 3.9s2 2.3 2 3c0 1.5 4.2 5.5 5.8 5.5.7 0 1.1.3 1 .7-.5 1.4 4 5.2 6.4 5.5 1.3.2 3.4 1.1 4.8 2.1 1.3.9 3 1.7 3.6 1.7.6 0 1.9.9 2.9 2s2.4 2 3.1 2c.8 0 1.6 1.2 1.9 2.7.4 1.6 1 3.6 1.6 4.5.5 1 .9 2.3.9 2.9 0 1.5 4.3 10.3 5.2 10.7.4.2.5.9.2 1.6-.9 2.3 10.6 20.3 12 18.9.4-.4.4 0 .1.9-.5 1.2.1 1.8 2.5 2.3 1.7.4 3.8 1.8 4.6 3.1.9 1.3 2 2.1 2.5 1.8.5-.3.6.1.4.9-.3.7.3 2.2 1.5 3.2 1.1 1 2 2.2 2 2.7 0 2.1 6.6 11.8 8 11.9.9 0 1.1.2.3.5-.8.4-.2 2.1 1.8 5.5 1.7 2.7 3.5 4.6 4 4.3.5-.3.9-.2.8.3-.4 2.2.3 3.3 1.9 3.4 1 0 1.2.3.4.6-.8.3-.2 1.5 1.9 3.4 2.4 2.3 3.4 2.7 4 1.7.7-1 1.2-.9 2.6.6 1.2 1.3 1.3 1.6.3 1-1.3-.7-1.3-.6-.1 1 1.7 2 10.3 6.6 12.6 6.6.8 0 3.3 2.9 5.5 6.4 4 6.3 6.1 8.1 9 7.7 2.9-.4 5.8-2.4 6.3-4.2.5-1.9 2.7-2.7 2.7-.9 0 .5 1.4 1.7 3.1 2.6 2.7 1.3 3 2 2.6 4.4-.7 3.5 1.2 5.3 5.5 5.2 1.7 0 4.1.6 5.4 1.4 2.8 1.9 6 .5 7.4-3.2.8-2.1.5-3.1-1.5-5.8-3.6-4.8-3.3-5.7 1.9-5 4.2.6 4.4.5 7.4-3.7 1.6-2.4 3.9-5.3 5.1-6.3 1.1-1.1 2.1-2.4 2.1-2.9 0-.6 1.1-2.5 2.5-4.3 1.4-1.8 2.5-3.5 2.5-3.8 0-.3 1.6-2.6 3.5-5.2 1.9-2.5 3.5-5 3.5-5.6 0-.6 1.2-2.5 2.8-4.4 4.9-6 7.7-9.7 8.2-11 .5-1.1 6.8-9 10-12.4.8-.9 2.6-3.8 4-6.4 1.4-2.6 3.5-5.7 4.8-6.8 1.2-1.2 2.2-2.7 2.2-3.4 0-.6 1.2-2.5 2.8-4.2 4.1-4.6 6.7-8.4 6.6-9.9-.1-.7.2-1 .7-.7.5.3 1.2-.3 1.6-1.3.3-1 1.4-2.9 2.3-4.3.9-1.4 2.2-4.1 2.9-6 1.3-4 8.9-16.1 10.8-17.3.7-.4 1.3-1.6 1.3-2.6 0-1.8 6.2-11.2 10-15.3 1.1-1.2 2-2.7 2-3.4 0-.6 1.8-2.8 3.9-4.7 2.2-2 4.1-4.6 4.3-5.9.2-1.3 1.3-2.7 2.5-3.3 1.2-.5 2.6-1.9 3.2-3.1.5-1.2 2.3-2.8 4-3.5 2-.9 2.9-1.9 2.6-2.9-1.3-4.4-1.4-6.6-.6-8 .9-1.2 1.6-.9 4.5 1.9 1.9 1.9 3.3 3.8 3 4.3-.3.4 0 .8.6.8s1.5 1.1 2.2 2.5c.6 1.3 1.5 2.2 2.1 1.8.6-.3.7-.1.4.4-.4.6.2 2.2 1.3 3.6s2 2.8 2 3.2c0 .3 1.3 2.5 2.9 4.8 3.1 4.6 7.1 13.2 7.1 15.3 0 .7 1.8 4.8 4 9 2.2 4.3 4 8.5 4 9.5s.5 2.1 1.1 2.5c.6.3 2.4 3.6 4.1 7.3 3.4 7.3 9.4 19.8 10.7 22.1 1.3 2.4 4.6 9.5 10.6 23 3.1 6.9 6.3 13.5 7.1 14.7.8 1.2 1.4 2.8 1.4 3.6 0 .7 2 4 4.5 7.3 2.4 3.2 4.5 6.4 4.5 7.1 0 .7 1.5 2.4 3.4 3.8 3.8 2.9 9.1 3.2 9.1.5 0-.8.8-1.6 1.8-1.8 2.2-.5 11.4 8.7 15.2 15.1 2.6 4.6 5.4 6.4 9.3 6.1 1.2-.1 2.9-.2 3.7-.3 2-.1 1.9-3-.4-8.2l-1.9-4.2 2.5-3.3c1.3-1.8 3-3.1 3.6-3 .7.2 3.7 1.2 6.8 2.1 3.4 1.1 6.6 1.5 8.3 1.1 2.3-.6 2.7-1.1 2.4-3.7-.2-2.2-1.2-3.5-3.3-4.7-4.3-2.4-5.1-3.8-5.9-10.9-.2-2.1-2-5.1-5-8.4-2.5-2.8-4.6-6.1-4.6-7.3 0-3.1 2.9-12.7 4.6-15.1.8-1.1 1.4-2.6 1.4-3.3 0-.8 3.4-8.3 7.6-16.8 4.1-8.5 7.2-15.9 6.8-16.6-.4-.6-.3-.8.3-.5.5.3 1.7-1.7 2.7-4.6 2.5-7.2 5.3-13.4 6.5-14.2.6-.3.8-1.2.5-2-.6-1.5 3.1-8.5 5.3-9.8.7-.4 2.1-3.8 3.2-7.5s3-8.5 4.1-10.7c1.2-2.4 2-5.9 2-9 0-4.6.3-5.3 2.6-6.6 2.4-1.3 2.8-1.2 3.8.5.6 1 5.2 8 10.1 15.5 5 7.5 9.7 14.8 10.4 16.3.8 1.6 3.7 5.2 6.5 8.1 7.4 7.8 16.6 19.6 16.6 21.2 0 1.4 5.7 9.5 6.7 9.5.6 0 1.5.4 1.8 1 .4.6-.1.7-1.2.3-1.6-.6-1.7-.5-.3 1.2.8 1.1 2.5 3.1 3.7 4.5 1.2 1.4 3.1 3.6 4.2 4.9 1.2 1.3 2.1 2.8 2.1 3.2 0 .4.6 1.4 1.3 2.1.7.7 3.9 6.2 7.1 12.3 5.9 11.1 15.9 25.5 17.7 25.5.6 0 .8.4.5.9-.3.5.1 1.5 1 2.2.9.7 2 2.3 2.5 3.6.5 1.4 2.2 2.6 4.7 3.2 2.3.7 4.7 2.3 6.1 4.2 1.3 1.7 3.9 3.8 5.9 4.6 6 2.6 14.2 1.4 14.2-1.9 0-.6-.6-.8-1.4-.5-.9.4-1.2 0-.9-1.3.3-1-.7-3.6-2.1-5.9-1.4-2.2-2.6-4.5-2.6-5.1 0-1.7-3.4-9-4.2-9-.5 0-.8-.5-.8-1 0-.6-2.2-4.5-4.9-8.8-4.7-7.5-9.5-16.1-9.6-17.3 0-.3-.8-1.3-1.8-2.3-.9-1-1.5-2.1-1.2-2.6.3-.5-.3-1.5-1.4-2.2-1.1-.8-2.8-3.4-3.7-5.8-2.7-6.8-11.2-22.8-15.3-29-.9-1.4-2.2-3.6-2.7-5-.6-1.4-1.9-4.2-2.8-6.3-.9-2.1-1.3-4.9-1-6.2.4-1.7-.3-4.1-2.5-7.8-2.2-3.8-3-6.4-2.8-9.5.1-3.9-.2-4.5-6.3-9.9-3.5-3.2-6.9-5.7-7.4-5.5-.6.2-.8 0-.4-.4s-.5-2.3-2.1-4.3-3.2-4.7-3.6-6.1c-.7-2-6.8-10.4-15-20.2-.7-.9-1.9-2.7-2.6-4-2.1-3.9-5-6-6.6-4.6-3 2.4-3.4 4.6-1.7 8.5.9 2.1 1.6 4.8 1.6 5.9-.1 1.2 1 3.4 2.3 4.8 1.4 1.5 2.5 3.1 2.5 3.6 0 1.2 4.1 4 5 3.5.4-.2.7.1.7.8 0 .7.3 2.3.8 3.7.4 1.4.4 2.2 0 1.8-.4-.4-1.8-.3-3.2.3-1.6.6-2.2.6-1.8-.1.3-.6-.5-1-1.9-1-2 0-2.7-.6-3.2-2.8-.4-1.5-1.2-3.2-1.9-3.7-.6-.6-1.3-1.5-1.5-2-.8-2.5-2.9-6.9-3-6 0 .5-.9-.5-2-2.3-1.1-1.7-2.5-3.2-3.1-3.2-.6 0-.9-.6-.6-1.3.3-.8-.3-2-1.4-2.8-1-.7-1.9-2-1.9-2.7 0-.9-.6-1.2-1.5-.8-1.2.4-1.4 0-1.1-1.8.3-1.6-.1-2.7-1.1-3-1.9-.7-4.1 1.4-3.5 3.4.8 2.3 3.6 5.5 5 5.6 2.8.2 3.3.4 2.8 1.3-.3.5.1 1.2 1 1.5 1.4.5 1.4.9.3 2.2-1.2 1.5-1.5 1.4-3-.5-2.3-2.8-3.2-2.7-2.7.4.5 2.5.4 2.5-4.2 2.2-4.2-.4-5.2 0-7.9 2.5-1.7 1.6-3.8 4.3-4.7 6.1-.9 1.8-2.3 3.6-3.1 4-.7.5-1 1.4-.7 2 .4.7.3.9-.1.4-1.2-1-6.5 4.3-6.5 6.5 0 1-.4 1.8-.9 1.8-1.1 0-9.9 18.1-12.1 25-3.4 10.9-5 16.6-6 21.5-.5 2.7-1.2 6.1-1.6 7.5-.3 1.4-.8 3.8-1.1 5.5-.2 1.6-.7 3.7-1 4.5-.4.8-.7 1.8-.8 2.2-.2.5-.3.9-.5 1-.1.2-.3 1.1-.5 2.1s-1 3.3-1.8 5c-4.6 10-6.8 15.5-6.6 16.3.5 1.7-1.2 5.4-2.6 5.4-.7 0-2.2-1.1-3.3-2.5-1.1-1.3-2.3-2.1-2.7-1.7-.3.4-.5.2-.3-.4.2-.6-1.3-3.5-3.2-6.4-6.5-10.1-7.8-12.7-6.8-14.3.5-.9.4-1.8-.1-2.2-1.3-.7-4.1-6.4-4.1-8.2 0-.7-.4-1.4-1-1.4-.5-.1-1.4-.2-2-.3-.5 0-.9-.5-.7-1.1.1-.5.6-.9 1.1-.7 1.3.4 3.6-1.9 3.6-3.7-.1-.9-2.2-3.9-4.7-6.6-2.5-2.8-4.2-4.3-3.8-3.5.4.8-.7-.1-2.4-2-1.8-1.9-4-4.9-4.8-6.5-.9-1.7-2.6-4.4-3.8-6-1.3-1.7-2.6-4-3-5.3-.3-1.2-1-2.2-1.5-2.2s-1.9-1.7-3-3.8c-2.3-4.1-5.7-9.1-9.2-13.7-1.3-1.6-2.2-3.5-2-4.3.4-1.8-1.8-4.3-3.1-3.5-.5.3-.7.1-.4-.4.4-.6-.2-2.8-1.3-4.9-1-2.2-1.9-3.5-2-2.9 0 .5-1.4-1-3-3.5-1.7-2.5-3.5-4.4-4-4.3-.6.2-1-.8-1-2.2 0-1.9-.5-2.5-2.1-2.5-1.1 0-1.7-.5-1.4-1 .3-.6-.3-1-1.3-1-1.1 0-2.5-.6-3.1-1.4-.7-.8-2.2-1.7-3.5-2-1.4-.3-2.9-1.9-3.6-3.6-1.1-2.7-1-3.6 1.1-7.5l2.4-4.5-2.3-2.2c-1.3-1.3-2.2-1.7-2.2-1 0 .9-.5 1-1.6.4-1.2-.7-2.8.2-6.5 3.8-2.7 2.6-4.9 5.1-4.9 5.7 0 1.1-3.9 5-4.6 4.5-.2-.1-1.2-.2-2.1-.2-1.7.1-1.7.2.1 1.5 2.3 1.8 1.4 4.4-1.6 4.7-1.3 0-2.7.2-3.3.3-.5.2-1.8.3-2.9.4-1.3.1-1.7.7-1.3 2 .3 1.3-.5 2.9-2.4 4.7-1.6 1.5-2.9 3.3-2.9 3.9 0 .7-.9 2-2.1 3.1-1.1 1-3.1 4.2-4.4 7-1.3 2.9-2.8 5.5-3.4 5.8-.5.3-2 2.7-3.2 5.4-1.3 2.6-2.9 5.3-3.6 6-.7.7-1.3 1.7-1.3 2.1 0 .5-.9 2.9-2 5.4-1.9 4.2-2.2 4.5-4.8 3.8-1.5-.4-3.3-.6-4-.4-1.9.7-10 13.6-16 25.7-4.3 8.6-5.1 11-4.1 11.7 1.1.7 1 .9-.3.9-1.6 0-2.3 1.1-1.9 3.3.1.5-.3.6-.8.3-1.2-.8-2.5 3-1.5 4.5.4.7.3.9-.4.5-.6-.4-2 1.8-3.4 5.5-1.3 3.6-3.3 6.8-4.7 7.8-7.8 5.2-25 25.9-23.5 28.3.4.6.3.8-.3.5-.5-.3-2 1.2-3.4 3.4-1.3 2.1-4.5 6.9-7.1 10.5-2.7 3.7-4.8 7-4.8 7.4 0 .5-1.8 2.8-3.9 5.2-4.2 4.6-8.6 14.7-7.8 17.9.4 1.4-.3 2.4-2.2 3.4-3.5 1.8-7.1.9-7.1-1.7 0-2.5-3.2-8.7-6.3-12-1.4-1.5-2.3-2.9-2-3.2.3-.3-1.4-3.2-3.8-6.4-5-6.7-5.5-7.5-13.8-19.2-3.3-4.7-6.8-9.4-7.8-10.5-1-1.1-1.7-2.4-1.5-2.9.2-.5-.4-.6-1.2-.3-1 .4-1.3.1-.9-.9.3-.8 0-2-.6-2.8-.6-.7-.9-1.5-.6-1.8.3-.2-1.5-2.4-4-4.7-2.5-2.3-4.5-4.6-4.5-5.2 0-.5-.7-.9-1.5-.9s-1.5-.7-1.5-1.6c0-1.9-3.8-9.1-6.2-11.8-1-1.1-1.8-2.4-1.8-2.8 0-1.4-13.7-20.9-15.1-21.6-.4-.2-.5-1.2-.2-2.2.4-1.6 0-2-1.7-2-1.5 0-2-.5-1.7-1.4.3-.8-.3-2.2-1.4-3.2-1-.9-3.3-3.9-5-6.5-1.7-2.7-3.5-4.9-4-4.9s-.9-.8-.9-1.9c0-2.3-3.9-7.3-5.1-6.5-.5.3-.8 0-.7-.8.2-.7-.4-1.2-1.2-1-.8.2-1.2.1-.8-.3.8-.8-3-8.5-4.2-8.5-.4 0-1.3-1.4-2.1-3.2-1.1-2.7-1.4-2.9-2-1.2-.8 2-.8 2-1.4-.8-.3-1.8-4.8-7.9-9.8-13.3-1.6-1.6-3.4-4.1-4.2-5.5-1.2-2.3-1.1-2.8 1.9-5.6 1.7-1.7 5.7-4.8 8.9-6.8 3.1-2.1 5.7-4.2 5.7-4.6 0-.4 1.9-2 4.3-3.4 2.3-1.4 5.3-4.1 6.7-6 1.4-2 2.9-3.6 3.4-3.6s2.4-1.1 4.2-2.5c1.8-1.4 3.6-2.5 4-2.5.4 0 3.4-2.6 6.6-5.8 3.2-3.1 6.1-5.7 6.5-5.8 2-.2 4.2-1.7 3.7-2.5-.3-.5.6-1.3 2.1-1.9 1.4-.5 2.8-1.6 3.1-2.4.3-.8 2.3-2.2 4.5-3 2.2-.9 5.1-2.7 6.5-4.1 1.3-1.3 2.4-2.2 2.4-1.9 0 .3 1.1-.8 2.5-2.4 2.5-2.9 3.2-5.2 1.8-5.2-.5 0-1.3-1.1-1.9-2.4-1-2.1-.8-2.7 1-4.3 1.2-1.1 3-2.2 4-2.6.9-.4 1.4-1.1 1.1-1.7-.3-.5-.2-1 .2-1 .9 0 4.7-3.4 7.4-6.6 1.8-2.2 4.8-4.8 10.4-8.9 2.2-1.7 4.6-3.5 5.3-4 .7-.6 2.7-2.5 4.4-4.3 1.7-1.7 3.7-3.2 4.5-3.2.7 0 1.3-.3 1.4-.8 0-.4.2-1.8.4-3.2.1-1.4-.2-3-.7-3.7-.6-.7.2-2.8 2.4-6 1.8-2.6 3.4-5.4 3.6-6.2.5-2.1 4.1-7.3 6.8-9.6 2.2-1.9 2.2-2.1.7-5.3-1.8-3.7-3.3-3.6-9.3.5l-3.5 2.3-.3-2.7c-.3-2.1.4-3.3 2.7-5.3 1.7-1.4 3.5-3.9 4-5.5.4-1.7 1.3-2.9 2-2.8 1.8.5 1.2-1.6-.9-2.9-1.1-.7-2-2.3-2-3.5 0-1.3-.4-2.3-1-2.3-.5 0-1-.7-1-1.5 0-1.6-3.8-1.6-7.4 0-1 .4-2.1.4-2.5-.2-1.1-1.7-5.1-2.3-5.1-.7 0 1.7-1.4 1.8-4.1.4-1.2-.7-1.9-.7-1.9-.1s-.7.7-1.7.4c-1.1-.4-1.4-.3-.9.5.4.7.2 1-.6.7-.7-.2-2.6 1.4-4.3 3.6-1.6 2.2-4.5 5.8-6.3 8.1-1.8 2.2-3.1 4.5-2.9 5.1.1.5-1 2.2-2.6 3.8-1.5 1.6-2.6 3.3-2.3 3.8.4.5-.3 1.2-1.4 1.6-1.9.6-2.5 1.8-2 4 .1.5-.2.7-.6.3-1.1-1.2-6.4 6.1-5.7 7.9.5 1.1.3 1.4-.6.9-1.2-.8-7 4.8-7.1 6.8 0 .5-1.1 2.3-2.4 4-2.3 3-4.2 7.4-3.8 8.8.1.4-.5.5-1.3.2-.8-.4-1.5-.2-1.5.3 0 .6-.9 2.1-2.1 3.4-1.1 1.3-3.9 4.6-6.2 7.3-2.3 2.7-6.1 6.9-8.4 9.4-2.3 2.5-4.4 4.8-4.5 5.1-.2.3-4.6 4.4-9.8 9-5.2 4.7-9.8 9.2-10.2 10-.4.9-.7 1.2-.7.8-.1-.5-2.2 1-4.7 3.2-2.6 2.3-5 4.1-5.4 4.1-.4 0-1.2 1.1-1.8 2.5-1.3 2.9-.1 4.1 2.8 2.5 1.1-.6 2-.8 2-.4s.9-.1 2-1.1 3.6-2.6 5.4-3.4c3.1-1.4 11.3-8.6 27.4-23.9 3.1-2.8 5.8-5.2 6.2-5.2.3 0 1.4.6 2.3 1.2 1.5 1.2 1.1 1.8-4 5.9-7.8 6.3-14.4 12-16.2 14.1-.9 1-2.1 1.8-2.7 1.8-.6 0-2.4 1.2-4 2.7-1.5 1.4-6.2 5.1-10.4 8.1-8.9 6.6-10.3 7.7-7.5 6.8 2-.6 2-.6.1.9-1.1.8-2.6 1.5-3.3 1.5-.7 0-1 .6-.7 1.5.6 1.3-.5 1.8-3.2 1.4-.4 0-1 .3-1.3.8-1.1 1.6-8.9 6.2-11.5 6.9-1.4.3-2.6 1-2.6 1.4 0 .4-.9 1-2 1.3-1.1.3-1.9 1.1-1.8 1.9.2.8-.5 1.2-1.9 1-1.4-.2-2.8.6-4 2.3-3.3 4.8-9.9 10.9-17.5 16.3-2.1 1.5-3.8 3.3-3.8 4 0 2.1-4.3 3.2-6 1.6-1.4-1.4-2.4-9.6-1.4-12.4.5-1.5 1-10.2 1.9-34.5.2-6.6.5-12 .6-12 .1 0 .3-2 .4-4.5.1-2.5.5-6.8.9-9.7.4-3 .3-5.4-.3-5.7-.6-.4-.3-1.8.6-3.7.9-1.9 1.2-3.4.6-4-.5-.5-.6-3.5-.1-7.2.4-3.4 1-12.3 1.3-19.7.2-7.4.7-16.4 1.1-20 .6-7.2 1.1-18.5 1.4-36.5.1-6.6.7-12.6 1.2-13.3.6-.6 2.9-1.2 5.3-1.2 2.3 0 5.5-.4 7.1-1 1.6-.5 4.9-1.1 7.4-1.4 2.5-.2 5.8-.9 7.4-1.5 1.6-.7 4.6-1.4 6.7-1.6 2.1-.3 4.9-.9 6.2-1.4 1.4-.6 2.7-.7 3-.5.3.3 2.1-.2 4.1-1 1.9-.8 7-1.8 11.3-2.1 6-.5 8.2-1.1 9.5-2.6.9-1 2.8-1.9 4.2-1.9 3.6 0 13.6-5.1 13.6-7 0-3 1.8-4.1 7-4.6 5.8-.4 6.1-.5 6.4-2.6.1-.8 1.2-2.7 2.5-4.3 1.2-1.6 1.8-3.1 1.2-3.3-.5-.2-.7-1-.4-1.9.5-1.3.1-1.5-1.9-1.1-2.7.5-5.8-1.2-6.1-3.4-.2-.7-.6-1.4-1.1-1.5-.5 0-1.3-.8-1.8-1.7-.7-1.3-1.3-1.4-2.9-.6-1.3.7-1.9.7-1.9 0 0-.5-.4-1-1-1-.5 0-1 .4-1 1zm-76 34c0 .4-1.7 1.4-3.8 2.2-4.5 1.7-7.7.9-8.7-2.2-.8-2.6-.5-2.9 3.1-3.6 1.6-.3 3-.7 3.2-.9.5-.5 6.2 3.7 6.2 4.5zm-21.1.4c2.9.1 3.7.5 3.9 2.3.3 1.8-.2 2.2-3.3 2.5l-3.7.3 2.3 2.9c2.1 2.7 2.2 3.7 2.1 15.5-.1 6.9-.4 13.5-.6 14.6-.4 2.2-1.4 10.9-2.1 20-.3 3.3-.7 7.6-1 9.5-.2 1.9-.7 8.1-1 13.8-.2 5.7-.7 10.7-1 11.2-.9 1.5-3.6-.1-3.1-1.9.3-.9.6-3.4.7-5.6.2-2.2.7-4.7 1.3-5.6 1.2-1.8 1.3-43 .1-44.9-.8-1.2-1.1-3.6-1.9-12.4-.3-3.3-.9-7.4-1.2-9.2-.3-1.8-.1-4.1.5-5.3.7-1.2.8-2.1.2-2.1-1.7 0-2-2.7-.5-4.8.9-1.3 2.1-1.9 3-1.5.9.3 3.2.6 5.3.7zM191 242.6c0 .8-.5 1.2-1 .9-.6-.4-.8-1.1-.5-1.6.9-1.4 1.5-1.1 1.5.7zm-131 58c0 .8-.4 1.4-1 1.4-.5 0-1-.9-1-2.1 0-1.1.5-1.7 1-1.4.6.3 1 1.3 1 2.1zm-.5 12.6c.3 3.6-.8 6.7-1.8 5.1-1-1.6-1.2-6.7-.3-8.1 1.1-1.8 1.8-.9 2.1 3zm-7.8 4.6c-.5 3.7-2.7 4.1-2.7.4 0-1.6.3-3.2.6-3.5 1.3-1.2 2.4.5 2.1 3.1zm7.3 3.1c0 .6-.4 1.3-1 1.6-.5.3-1-.1-1-.9 0-.9.5-1.6 1-1.6.6 0 1 .4 1 .9zm-7.9 3.3c.2 2.6.1 3.7-.5 12.8-.3 3.6-.6 9.4-.7 13-.1 3.6-.6 8-1.1 9.7-.7 2.8-1.4 3.3-3.8 3.3-1.5 0-3-.6-3.2-1.2-.5-1.5.9-9.4 2.2-12.3 1.1-2.5 2.8-11.3 3.5-18.7.3-3.1.8-6.4 1.1-7.2.9-2.3 2.4-1.9 2.5.6zm63.7 33.4c.3 1.8-.2 2-3.5 1.6l-3.7-.5 2.4-1.9c2.7-2.2 4.4-1.9 4.8.8zm287.9 6.1c2.6 3.2 5.8 6.9 7.1 8.3 1.2 1.4 2.2 2.8 2.2 3.1 0 .4 3 4.3 6.8 8.7 8 9.5 9.2 11 11.3 14.2.9 1.4 3.7 4.9 6.2 7.9 2.5 2.9 6.1 8.6 8.1 12.6 1.9 4 4.2 7.5 4.9 7.8.8.3 1.7 1.8 2.1 3.2.4 1.5 1.4 3.4 2.1 4.2.8.8 1.5 2.1 1.5 2.9 0 3-4-.7-9-8.4-2.7-4.2-5.4-8.2-5.9-8.8-.4-.6-2.6-3.7-4.7-7-2.1-3.2-4.2-6.1-4.5-6.4-.4-.3-.9-1.5-1.3-2.8-.4-1.2-1.1-2.2-1.6-2.2s-1.7-1.5-2.6-3.3c-.9-1.7-3.3-5-5.3-7.3-2-2.2-5.2-6.2-7.1-8.7-5.7-7.6-9.2-11.9-13.7-16.5-2.4-2.5-4.3-5-4.3-5.8 0-2.9 3-1.2 7.7 4.3zm-272.2 7.2c2.5 5.3 5.3 10.9 6.2 12.6 5.5 10.2 5.5 11.3-.3 5.9-11.5-10.6-12.7-11.4-13.9-9.5-1.1 1.9-6.1-.9-12.3-6.9-9.4-9-8.3-12.2 4.2-11.8 4.1.1 7.8-.1 8.2-.4 1.6-1.6 3.8 1.1 7.9 10.1zm-81.7-5.4c.1.1.2 10.5.2 23.1-.1 32.8-.1 34.6-.1 37.4v14c-.1 6.3 0 16.2.1 22 .2 7.5-.1 11.3-1.1 13-1 1.8-1.4 7-1.4 19-.1 9.1-.4 17.4-.8 18.5-.9 2.8-1.6 7.1-2.2 13-.3 2.7-.8 6.6-1.1 8.5-1.7 10.2-4.1-9.4-4.9-39.5-.2-7.7-.4-14.7-.5-15.5 0-.8.2-4.1.5-7.4.3-3.2.1-6.3-.3-7-.5-.6-.8-2-.6-3.1.2-1.1.3-6.3.4-11.5 0-5.2.1-10.6.1-12 .5-7.7 0-18.3-.9-18.9-.5-.3-.8-1.3-.6-2.1 1.6-9 1.9-13.1 1.2-16.4-.5-2.5-.4-4.3.3-5.2.6-.7 1.3-4.4 1.5-8.1.6-7.5 1.2-14.5 1.8-18.3.3-1.4.5-2.8.5-3.2.2-1.4 6.3-1.7 7.9-.3zm540.8 3.3c.1.6.2 1.3.3 1.4.1.2.4 1.9.7 3.7.2 1.9.9 3.8 1.5 4.2.7.4.9 1.2.5 1.8-.9 1.4-6.5-4.9-5.9-6.6.3-.7.9-1 1.4-.7 1.3.8 1.1-1-.3-2.4-.9-.9-.9-1.2.3-1.3.9 0 .7-.4-.6-1l-2-.9 2 .3c1.1.1 2.1.8 2.1 1.5zm-60.8 27.7c-1.1 2.4-2.8 3.4-2.8 1.6 0-2.1 1.3-4.1 2.6-4.1 1.1 0 1.1.5.2 2.5zm83.7 42.6c1.1 1.6.1 1.9-1.3.3-.7-.8-.8-1.4-.3-1.4s1.3.5 1.6 1.1zm-155 2.7c2.3 1.6 5.5 6.6 5.5 8.5 0 2.1 0 2.1-1.8.1-2.3-2.5-6.2-8-6.2-8.8 0-.8 1.3-.7 2.5.2zm-253.1 50.9c.7 1.6 2.3 3.7 3.5 4.7 2 1.9 2.9 4.6 1.4 4.6-.5 0-3.5-2.7-6.8-6.1-3.3-3.3-7.7-7.6-9.7-9.6-2.1-2-3.8-4-3.8-4.4 0-.5-.9-1.9-2.1-3.1-4.5-5-9.9-12.3-9.9-13.5 0-1.7 25.6 23.9 27.4 27.4zm266 5.2c-.7.8-4.4-3.2-4.4-4.8 0-1.1.8-.6 2.4 1.4 1.3 1.6 2.2 3.2 2 3.4zM42.7 553.2c-.3.8-.6.5-.6-.6-.1-1.1.2-1.7.5-1.3.3.3.4 1.2.1 1.9z"/></svg>